<svg xmlns="http://www.w3.org/2000/svg" width="13.323" height="13.309" viewBox="0 0 13.323 13.309">
  <g id="Group_753" data-name="Group 753" transform="translate(104.407 -232.457)">
    <path id="Union_10" data-name="Union 10" d="M-5056.273,270.44c-.4,0-.792-.008-1.189-.009a3.34,3.34,0,0,1-.773-.128l-.042-.01a3.568,3.568,0,0,1-2.81-3.052,5.837,5.837,0,0,1-.119-1.029v-.363c0-1.573,0-3.2.037-4.8a4.06,4.06,0,0,1,.815-2.392,3.5,3.5,0,0,1,2.518-1.374c.794-.08,1.6-.111,2.383-.14l1.235.061.632-.01c.274-.005.558-.01.836-.01.387,0,.706.01,1.006.032a3.76,3.76,0,0,1,3.8,3.79c.061.746.06,1.505.057,2.241v.279c0,1.016,0,2.067-.057,3.1a4.058,4.058,0,0,1-.995,2.589,3.692,3.692,0,0,1-2.7,1.209c-.729.02-1.5.029-2.422.029C-5054.8,270.451-5055.549,270.445-5056.273,270.44Zm-1.371-11.884a2.322,2.322,0,0,0-2.15,2.04,3,3,0,0,0-.093.606c-.014,1.642-.019,3.314-.016,4.969a4.58,4.58,0,0,0,.079.743,2.305,2.305,0,0,0,1.829,2.1l.1.023a3.154,3.154,0,0,0,.687.113l1.182.013c.655.006,1.335.014,2,.014.808,0,1.482-.01,2.122-.033a2.41,2.41,0,0,0,2.626-2.383,18.392,18.392,0,0,0,.113-2.029c.006-.321.013-.653.027-.991-.014-.287-.022-.574-.031-.879-.021-.688-.042-1.4-.125-2.1a2.273,2.273,0,0,0-2.059-2.183,2.947,2.947,0,0,0-.577-.084c-1.467-.011-2.91-.017-4.288-.017h-.681A4.824,4.824,0,0,0-5057.644,258.556Zm-.358,8.461a1.444,1.444,0,0,0-.189-.177.743.743,0,0,1-.31-1,.536.536,0,0,1,.491-.316,1.05,1.05,0,0,1,.535.183l.089-.1.535-.563.021-.023a2.491,2.491,0,0,1,.271-.257.7.7,0,0,1,.432-.163.629.629,0,0,1,.454.207.614.614,0,0,1,0,.894c-.323.334-.657.666-.981.986-.129.128-.26.257-.389.386a.422.422,0,0,1-.048.042.712.712,0,0,1-.417.147A.62.62,0,0,1-5058,267.017Zm5.679-.206h-1.919a.663.663,0,0,1-.734-.631.633.633,0,0,1,.17-.466.768.768,0,0,1,.565-.215c.47,0,.964,0,1.467,0,.484,0,.974,0,1.5,0a.693.693,0,0,1,.758.659.676.676,0,0,1-.757.653l-.526,0Zm-5.717-4.034c-.085-.084-.169-.169-.25-.253l-.081-.084a.634.634,0,0,1-.071-.906.6.6,0,0,1,.473-.232.805.805,0,0,1,.469.168l.048.037c.049-.053.1-.107.146-.161.207-.227.421-.464.641-.688a.77.77,0,0,1,.548-.262.612.612,0,0,1,.45.2.677.677,0,0,1-.069.97c-.33.334-.767.775-1.217,1.216a.769.769,0,0,1-.537.268A.823.823,0,0,1-5058.04,262.777Zm5.307-.178h-1.435a.87.87,0,0,1-.64-.218.613.613,0,0,1-.168-.448c.006-.4.3-.641.792-.643q1.435,0,2.869,0c.478,0,.792.252.8.639a.6.6,0,0,1-.167.441.882.882,0,0,1-.646.23h-1.4Z" transform="translate(4956.8 -24.686)" fill="#414141"/>
  </g>
</svg>
