<svg xmlns="http://www.w3.org/2000/svg" width="34.303" height="34.303" viewBox="0 0 34.303 34.303">
  <g id="Group_731" data-name="Group 731" transform="translate(-1198 -17.473)">
    <rect id="Rectangle_81" data-name="Rectangle 81" width="34.303" height="34.303" rx="17.151" transform="translate(1198 17.473)" fill="#ee9dc2"/>
    <g id="Group_51" data-name="Group 51" transform="translate(1207.937 26.378)">
      <path id="Union_2" data-name="Union 2" d="M.7,16.381A.8.8,0,0,1,0,15.431a5.7,5.7,0,0,1,2.922-4.607A8.2,8.2,0,0,1,7.367,9.66h.009a7.352,7.352,0,0,1,5.8,2.793,5.146,5.146,0,0,1,1.105,3.041.715.715,0,0,1-.444.8.842.842,0,0,1-.277.044.991.991,0,0,1-.423-.091.727.727,0,0,1-.351-.556,4.413,4.413,0,0,0-3.406-4.122,7.353,7.353,0,0,0-2.365-.414A6.3,6.3,0,0,0,3.038,12.6,3.862,3.862,0,0,0,1.512,15.54c-.027.512-.319.845-.741.845Q.734,16.385.7,16.381Zm6.433-7.43A4.469,4.469,0,0,1,2.674,4.466,4.476,4.476,0,0,1,7.134,0h.02a4.476,4.476,0,0,1-.017,8.952ZM4.191,4.443a2.956,2.956,0,0,0,2.9,2.993h.038A2.961,2.961,0,0,0,9.245,2.4a2.937,2.937,0,0,0-2.087-.887H7.131A2.955,2.955,0,0,0,4.191,4.443Z" transform="translate(0 0)" fill="#fff"/>
    </g>
  </g>
</svg>
