<svg xmlns="http://www.w3.org/2000/svg" width="13.156" height="16.061" viewBox="0 0 13.156 16.061">
  <g id="Group_8" data-name="Group 8" transform="translate(-2790.827 296.372)">
    <path id="Path_28" data-name="Path 28" d="M2796.668-294.874c0-.26-.009-.5,0-.737a.728.728,0,0,1,.75-.76.726.726,0,0,1,.72.756c.011.238,0,.477,0,.738.19.044.365.082.537.126a5.123,5.123,0,0,1,3.845,4.978c.013,1.255-.005,2.51.012,3.765a.855.855,0,0,0,.21.5c.26.3.552.577.841.852s.513.566.329.99c-.176.4-.527.452-.913.452q-4.245-.005-8.489,0c-.924,0-1.848,0-2.772,0a.8.8,0,0,1-.859-.48.771.771,0,0,1,.291-.908c.017-.015.032-.032.048-.049.349-.359.832-.663,1.008-1.093a4.3,4.3,0,0,0,.053-1.489c.012-1.026-.032-2.057.05-3.078a5.036,5.036,0,0,1,3.96-4.472C2796.4-294.811,2796.515-294.839,2796.668-294.874Zm-3.353,10.152h8.175a1.1,1.1,0,0,1-.441-1.089c.007-1.3.012-2.6,0-3.9a4.294,4.294,0,0,0-.135-1.079,3.62,3.62,0,0,0-4.068-2.619,3.622,3.622,0,0,0-3.076,3.531c-.02,1.345-.008,2.691,0,4.037A1.1,1.1,0,0,1,2793.315-284.723Z" transform="translate(0 0)"/>
    <path id="Path_29" data-name="Path 29" d="M2868.87-82.924a1.4,1.4,0,0,1-1.445,1.44,1.392,1.392,0,0,1-1.407-1.44Z" transform="translate(-70.038 -198.826)"/>
  </g>
</svg>
