<svg xmlns="http://www.w3.org/2000/svg" width="12.422" height="15.036" viewBox="0 0 12.422 15.036">
  <g id="Group_745" data-name="Group 745" transform="translate(-1316.662 -42.816)">
    <path id="Path_744" data-name="Path 744" d="M1329.084,45.347v1.2h-1.224v.4c0,2.949-.021,5.9.01,8.848a1.961,1.961,0,0,1-2.08,2.061c-1.94-.019-3.88,0-5.821-.005a1.894,1.894,0,0,1-2.085-2.07q0-4.395,0-8.79v-.422h-1.224v-1.2c.112-.005.216-.014.321-.014.833,0,1.666-.006,2.5,0,.214,0,.3-.06.291-.283-.015-.3-.005-.607,0-.911a1.237,1.237,0,0,1,1.288-1.329q1.807-.022,3.615,0a1.239,1.239,0,0,1,1.307,1.343c0,.3.01.608,0,.911-.009.209.073.27.274.269.833-.008,1.666,0,2.5,0Zm-9.994,1.222v.312q0,4.5,0,8.993c0,.528.24.767.775.768q3.012,0,6.025,0c.524,0,.766-.248.766-.778q0-4.5,0-8.993c0-.1-.01-.19-.016-.3Zm5.681-1.222c0-.413.009-.783-.009-1.152,0-.059-.132-.159-.2-.159-1.125-.01-2.25,0-3.375-.01-.172,0-.218.072-.213.23.008.283.013.568,0,.851-.01.2.082.247.261.243.411-.009.822,0,1.233,0Z" transform="translate(0 0)" fill="#d64949"/>
    <path id="Path_745" data-name="Path 745" d="M1392.027,155.23h-1.167V150.3h1.167Z" transform="translate(-69.833 -101.162)" fill="#d64949"/>
    <path id="Path_746" data-name="Path 746" d="M1434.961,155.219h-1.168V150.29h1.168Z" transform="translate(-110.241 -101.152)" fill="#d64949"/>
  </g>
</svg>
