<svg id="Group_89" data-name="Group 89" xmlns="http://www.w3.org/2000/svg" width="15.862" height="16.801" viewBox="0 0 15.862 16.801">
  <path id="Path_56" data-name="Path 56" d="M-2595.433-755.654c.056-.534-.15-1.209.673-1.259.44-.026.577.268.628,1.228h5.033c.08-.488-.155-1.252.7-1.214.751.033.56.718.6,1.208a13.328,13.328,0,0,1,1.427.111,3.111,3.111,0,0,1,2.542,2.9,73.383,73.383,0,0,1-.014,9.54,3.17,3.17,0,0,1-2.894,2.874,75.654,75.654,0,0,1-9.738,0,3.179,3.179,0,0,1-2.909-2.9,74.087,74.087,0,0,1-.011-9.5,3.158,3.158,0,0,1,3.157-2.982C-2595.977-755.656-2595.715-755.654-2595.433-755.654Zm10.424,5.092H-2598.2a2.662,2.662,0,0,0-.034.324c.038,2.335.06,4.671.129,7.006a1.837,1.837,0,0,0,1.784,1.7,73.162,73.162,0,0,0,9.419,0,1.856,1.856,0,0,0,1.788-1.78c.065-2.124.1-4.248.14-6.372C-2584.966-749.975-2585-750.263-2585.009-750.562Zm-4.087-3.793h-5.05c0,.172,0,.317,0,.461-.006.492-.25.784-.646.776s-.617-.292-.624-.76c0-.164,0-.329,0-.485-2.17-.246-2.885,1.049-2.7,2.483h13.044c.125-2.052-1.178-2.718-2.7-2.463-.132,1.016-.263,1.245-.7,1.224S-2589.026-753.386-2589.1-754.355Z" transform="translate(2599.541 756.914)" fill="#636363"/>
  <path id="Path_57" data-name="Path 57" d="M-2549.595-652.063a.956.956,0,0,1-.946.966.958.958,0,0,1-.955-.957.958.958,0,0,1,.927-.945A.955.955,0,0,1-2549.595-652.063Z" transform="translate(2555.305 661.237)" fill="#636363"/>
  <path id="Path_58" data-name="Path 58" d="M-2510.569-653a.955.955,0,0,1,.97.942.957.957,0,0,1-.951.96.959.959,0,0,1-.95-.922A.958.958,0,0,1-2510.569-653Z" transform="translate(2518.481 661.236)" fill="#636363"/>
  <path id="Path_59" data-name="Path 59" d="M-2469.6-652.037a.957.957,0,0,1-.969.943.958.958,0,0,1-.933-.979.958.958,0,0,1,.949-.923A.956.956,0,0,1-2469.6-652.037Z" transform="translate(2481.651 661.234)" fill="#636363"/>
  <path id="Path_60" data-name="Path 60" d="M-2550.563-611.1a.958.958,0,0,1-.936-.976.959.959,0,0,1,.985-.926.958.958,0,0,1,.917.955A.957.957,0,0,1-2550.563-611.1Z" transform="translate(2555.308 624.411)" fill="#636363"/>
  <path id="Path_61" data-name="Path 61" d="M-2510.529-613a.956.956,0,0,1,.933.978.959.959,0,0,1-.988.924.959.959,0,0,1-.914-.958A.957.957,0,0,1-2510.529-613Z" transform="translate(2518.477 624.407)" fill="#636363"/>
  <path id="Path_62" data-name="Path 62" d="M-2470.553-613a.956.956,0,0,1,.956.955.957.957,0,0,1-.965.947.958.958,0,0,1-.937-.936A.957.957,0,0,1-2470.553-613Z" transform="translate(2481.649 624.405)" fill="#636363"/>
</svg>
