<svg xmlns="http://www.w3.org/2000/svg" width="12.962" height="12.968" viewBox="0 0 12.962 12.968"><g transform="translate(-106.186 -261.291)"><path d="M213.291,372.052a3.762,3.762,0,1,1,7.525.016,3.762,3.762,0,0,1-7.525-.016Zm3.786-2.729a2.73,2.73,0,0,0-.047,5.46,2.73,2.73,0,1,0,.047-5.46Z" transform="translate(-101.667 -101.56)"/><path d="M109.862,368.259c.355,0,.711,0,1.066,0,.4,0,.622.185.625.5s-.226.531-.63.535c-.643.005-1.286.022-1.928,0a1.688,1.688,0,0,0-1.764,1.766c.013.651,0,1.3,0,1.954a1.67,1.67,0,0,0,1.738,1.744c.668,0,1.336,0,2,0a.514.514,0,0,1,.573.451.472.472,0,0,1-.473.567,16.86,16.86,0,0,1-2.754-.079,2.534,2.534,0,0,1-2.118-2.551,23.189,23.189,0,0,1,.042-2.585,2.635,2.635,0,0,1,2.474-2.3c.38-.009.761,0,1.142,0Z" transform="translate(0 -101.537)"/><path d="M143.481,315.054c1.413,0,2.826,0,4.24,0a.534.534,0,0,1,.548.28.5.5,0,0,1-.429.727c-.211.011-.423.005-.635.005h-7.794c-.1,0-.2,0-.3-.006a.5.5,0,0,1-.47-.5.484.484,0,0,1,.477-.493c.507-.012,1.015-.008,1.523-.008Z" transform="translate(-30.804 -51.032)"/><path d="M173.726,262.332h-2.64a.533.533,0,0,1-.541-.3.432.432,0,0,1,.087-.535.826.826,0,0,1,.471-.193c1.735-.014,3.47-.01,5.2-.006a.576.576,0,0,1,.548.256.509.509,0,0,1-.489.779C175.486,262.337,174.606,262.332,173.726,262.332Z" transform="translate(-61.041)"/><path d="M253.118,407.237c.287,0,.531,0,.774,0a.51.51,0,0,1,.551.447.5.5,0,0,1-.469.577,2.71,2.71,0,0,1-.4.015c-.135,0-.27,0-.452,0,0,.251.005.492,0,.733-.009.35-.186.574-.46.594a.505.505,0,0,1-.576-.523c-.01-.252,0-.5,0-.8-.262,0-.5.006-.743,0-.438-.013-.692-.316-.577-.681a.483.483,0,0,1,.472-.353,5.143,5.143,0,0,1,.608,0c.194.012.254-.068.242-.251a5.42,5.42,0,0,1,0-.558.493.493,0,0,1,.467-.531.474.474,0,0,1,.543.442,2.562,2.562,0,0,1,.028.428C253.122,406.912,253.118,407.054,253.118,407.237Z" transform="translate(-137.207 -137.265)"/></g></svg>