<svg xmlns="http://www.w3.org/2000/svg" width="10.644" height="10.642" viewBox="0 0 10.644 10.642"><g transform="translate(697.641 2150.802)"><path d="M-688.872-2042.077c-.385-.377-.773-.75-1.153-1.132a.527.527,0,0,1-.11-.638.481.481,0,0,1,.538-.272.7.7,0,0,1,.341.182q1.04,1.021,2.064,2.06a.523.523,0,0,1,0,.812q-1.035,1.045-2.081,2.078a.522.522,0,0,1-.776.016.534.534,0,0,1,.038-.777c.377-.383.76-.76,1.192-1.19h-8.051c-.083,0-.167,0-.249,0a.54.54,0,0,1-.525-.53.534.534,0,0,1,.52-.53c.091-.007.183,0,.274,0h7.944Z" transform="translate(0 -101.354)"/><path d="M-695.623-2147.546l.947.94c.083.082.169.161.245.249a.523.523,0,0,1-.018.74.521.521,0,0,1-.74,0c-.476-.464-.942-.937-1.412-1.407-.229-.229-.46-.456-.687-.688a.536.536,0,0,1-.01-.831q1.026-1.036,2.062-2.062a.523.523,0,0,1,.776-.037.538.538,0,0,1-.036.8c-.373.379-.752.75-1.185,1.181h8.163c.389,0,.623.194.632.517a.507.507,0,0,1-.449.536,2.209,2.209,0,0,1-.3.011H-695.6Z" transform="translate(-0.143)"/></g></svg>