<svg xmlns="http://www.w3.org/2000/svg" width="15.801" height="15.801" viewBox="0 0 15.801 15.801">
  <g id="Group_91" data-name="Group 91" transform="translate(1332.653 1438.366)">
    <path id="Path_234" data-name="Path 234" d="M-1316.853-1430.442a7.913,7.913,0,0,1-7.94,7.876,7.914,7.914,0,0,1-7.861-7.924,7.913,7.913,0,0,1,7.94-7.876A7.914,7.914,0,0,1-1316.853-1430.442Zm-7.914,6.646a6.67,6.67,0,0,0,6.683-6.657,6.67,6.67,0,0,0-6.657-6.683,6.67,6.67,0,0,0-6.683,6.657A6.67,6.67,0,0,0-1324.766-1423.8Z" transform="translate(0)" fill="#636363"/>
    <path id="Path_235" data-name="Path 235" d="M-1213.421-1376.727c0,.5.009,1.007,0,1.51a.437.437,0,0,0,.208.405q.994.729,1.972,1.479a.607.607,0,0,1,.205.767.6.6,0,0,1-.7.323.909.909,0,0,1-.3-.154c-.767-.57-1.528-1.146-2.3-1.716a.76.76,0,0,1-.328-.658c.005-1.151,0-2.3,0-3.453,0-.443.252-.729.623-.723s.6.29.607.74C-1213.419-1377.714-1213.421-1377.22-1213.421-1376.727Z" transform="translate(-110.717 -55.752)" fill="#636363"/>
  </g>
</svg>
