<svg xmlns="http://www.w3.org/2000/svg" width="13.454" height="12.354" viewBox="0 0 13.454 12.354"><g transform="translate(-126.56 -440.209)"><path d="M259.758,552.656c0,.449,0,.9,0,1.348a1.4,1.4,0,0,1-1.461,1.471q-1.348.018-2.7,0a1.4,1.4,0,0,1-1.466-1.5q-.007-1.318,0-2.635a1.4,1.4,0,0,1,1.476-1.486q1.333-.008,2.666,0a1.406,1.406,0,0,1,1.481,1.481C259.762,551.778,259.758,552.217,259.758,552.656Zm-2.813,1.683c.429,0,.859-.009,1.287,0,.272.008.391-.094.388-.374q-.012-1.3,0-2.605c0-.282-.123-.38-.389-.378q-1.288.009-2.575,0c-.266,0-.392.1-.389.378q.014,1.3,0,2.605c0,.28.117.382.389.374C256.087,554.331,256.516,554.34,256.945,554.34Z" transform="translate(-119.746 -102.921)" fill="#231c2f"/><path d="M129.335,555.737c-.449,0-.9.006-1.348,0a1.331,1.331,0,0,1-1.41-1.37q-.035-1.408,0-2.818a1.34,1.34,0,0,1,1.393-1.364q1.378-.025,2.757,0a1.347,1.347,0,0,1,1.4,1.394q.028,1.378,0,2.757a1.342,1.342,0,0,1-1.443,1.4C130.234,555.742,129.784,555.737,129.335,555.737Zm1.726-2.764c0-.429,0-.858,0-1.286,0-.342-.1-.436-.442-.437q-1.272-.006-2.543,0c-.341,0-.432.1-.434.445q-.006,1.271,0,2.543c0,.339.085.429.411.431.868.006,1.736,0,2.6,0,.284,0,.408-.133.405-.412C131.057,553.831,131.061,553.4,131.061,552.973Z" transform="translate(0 -103.218)" fill="#636363"/><path d="M170.606,443.664a2.732,2.732,0,0,0-.519-1.011,3.366,3.366,0,0,0-6.033,1.955c-.01.263-.055.49-.318.608a.559.559,0,0,1-.807-.558,4.487,4.487,0,0,1,8.851-1c.021.086.046.17.076.28.1-.087.172-.166.259-.233a.531.531,0,0,1,.745.052.524.524,0,0,1,.037.723c-.4.423-.811.837-1.237,1.232a.5.5,0,0,1-.738-.078q-.538-.524-1.062-1.062a.56.56,0,0,1,.626-.921C170.517,443.663,170.543,443.709,170.606,443.664Z" transform="translate(-34.137)" fill="#231c2f"/></g></svg>