<svg xmlns="http://www.w3.org/2000/svg" width="15.021" height="15.036" viewBox="0 0 15.021 15.036">
  <g id="Group_759" data-name="Group 759" transform="translate(181.978 -165.811)">
    <path id="Path_760" data-name="Path 760" d="M-181.978,173.288q0-2.145,0-4.29a3.116,3.116,0,0,1,3.071-3.17q1.513-.034,3.026,0a4.359,4.359,0,0,1,2.993,1.313c.737.717,1.458,1.451,2.182,2.181a4.172,4.172,0,0,1,1.078,1.923.594.594,0,0,1-.578.811c-1.234.015-2.469.038-3.7-.006a1.783,1.783,0,0,1-1.785-1.842c-.023-.91-.009-1.822-.01-2.733,0-.431,0-.432-.446-.432h-2.586a1.909,1.909,0,0,0-2.025,2q-.012,3.747,0,7.493a12.67,12.67,0,0,0,.048,1.466,1.853,1.853,0,0,0,1.837,1.615c.607.007,1.215,0,1.822,0a.635.635,0,0,1,.629.353.591.591,0,0,1-.512.853,15.684,15.684,0,0,1-2.461-.065,3.043,3.043,0,0,1-2.578-3.04c0-.02,0-.039,0-.059Q-181.978,175.477-181.978,173.288Zm7.609-5.8-.1.053c0,.094-.013.188-.013.282q0,1.114,0,2.229c0,.562.214.776.784.778.763,0,1.525,0,2.288,0,.084,0,.168-.015.344-.032A39.772,39.772,0,0,0-174.368,167.492Z" fill="#4a4a4a"/>
    <path id="Path_761" data-name="Path 761" d="M-63.782,292.018c-.186,0-.372.009-.558,0a.564.564,0,0,1-.593-.5,3.7,3.7,0,0,1,.316-2.34,3.356,3.356,0,0,1,.49-.617q2-2.009,4.007-4a1.9,1.9,0,0,1,2.909.108,1.843,1.843,0,0,1-.215,2.459q-2,2.023-4.026,4.027A2.668,2.668,0,0,1-63.782,292.018Zm.061-1.631c-.012.409.021.432.4.4a1.419,1.419,0,0,0,.933-.435q2.041-2.045,4.085-4.087a.653.653,0,0,0,.043-.966.649.649,0,0,0-.961.07q-2.045,2.041-4.087,4.086A1.23,1.23,0,0,0-63.721,290.387Z" transform="translate(-110.121 -111.175)" fill="#4a4a4a"/>
  </g>
</svg>
