<svg xmlns="http://www.w3.org/2000/svg" width="298.204" height="164.14" viewBox="0 0 298.204 164.14">
  <g id="Group_796" data-name="Group 796" transform="translate(-26.052 -223.594)">
    <g id="Background_Simple" data-name="Background Simple" transform="translate(47.471 223.594)">
      <g id="Group_769" data-name="Group 769" transform="translate(0 0)">
        <path id="Path_914" data-name="Path 914" d="M311.04,100.025S258.7,24.67,193.353,16.675C135.668,9.618,82.123,37.2,74.67,96.809c-2.655,21.239-7.384,44.734-15.782,64.113C49.472,182.65,372.934,195.643,311.04,100.025Z" transform="translate(-58.686 -15.594)" fill="#ecf3ca" opacity="0.7"/>
      </g>
    </g>
    <g id="Table" transform="translate(26.552 380.914)">
      <g id="Group_780" data-name="Group 780">
        <line id="Line_24" data-name="Line 24" x1="297.204" fill="none" stroke="#263238" stroke-linecap="round" stroke-linejoin="round" stroke-width="1"/>
        <line id="Line_25" data-name="Line 25" x1="297.204" transform="translate(0 6.223)" fill="none" stroke="#263238" stroke-linecap="round" stroke-linejoin="round" stroke-width="1"/>
      </g>
    </g>
    <g id="Character_2" data-name="Character 2" transform="translate(158.065 260.495)">
      <g id="Group_790" data-name="Group 790">
        <path id="Path_942" data-name="Path 942" d="M417.051,359.8h-63.02a4.139,4.139,0,0,0-4.1,3.54l-9.421,64.469h74.935l5.724-63.5A4.139,4.139,0,0,0,417.051,359.8Z" transform="translate(-267.638 -308.033)" fill="#263238" stroke="#263238" stroke-linecap="round" stroke-linejoin="round" stroke-width="1"/>
        <g id="Group_781" data-name="Group 781" transform="translate(0 37.579)">
          <path id="Path_943" data-name="Path 943" d="M292.667,343.3s-17.047,8.458-22.9,10.8-7.287,3.383-7.808,4.815-23.293,37.217-25.9,40.47-8.2,10.28-7.417,15.1,7.027,8.979,13.013,8.848,9.76-1.3,10.41-2.993S269.243,389.1,269.243,389.1l5.205,32.922h66.5s5.2-45.024,5.2-51.661,1.3-14.444-1.432-16.136-14.054-5.6-22.382-8.328-10.931-3.253-12.883-3.253S292.667,343.3,292.667,343.3Z" transform="translate(-228.569 -339.623)" fill="#fff" stroke="#263238" stroke-linecap="round" stroke-linejoin="round" stroke-width="1"/>
          <path id="Path_944" data-name="Path 944" d="M320.137,341.935s-2.212,4.164-2.342,7.548-.65,9.63-2.6,13.4-3.383,5.856-2.342,5.465,7.027-7.027,7.678-8.458,1.691,1.3,1.691,1.3-1.952,5.6-2.212,6.377,8.2,11.581,8.2,11.581,7.287-5.726,8.979-7.027,1.171-2.342,1.3-4.034a13.835,13.835,0,0,1,1.562-5.6c.911-1.432,3.513,4.164,5.335,6.767s3.644,3.513,3.383,1.561-1.171-5.726-1.822-12.362-.521-14.575-2.212-17.047-10.57-2.965-16.4-3.383A8.609,8.609,0,0,0,320.137,341.935Z" transform="translate(-257.861 -338.003)" fill="#fff" stroke="#263238" stroke-linecap="round" stroke-linejoin="round" stroke-width="1"/>
          <path id="Path_945" data-name="Path 945" d="M283.119,378.049l4.686,23.408-6.05-15.564" transform="translate(-247.131 -351.979)" fill="none" stroke="#263238" stroke-linecap="round" stroke-linejoin="round" stroke-width="1"/>
        </g>
        <g id="Group_782" data-name="Group 782" transform="translate(62.927 43.983)">
          <path id="Path_946" data-name="Path 946" d="M325.231,351.615s1.821,10.15,3.513,17.958a79.779,79.779,0,0,0,3.9,13.013s8.589-14.444,11.061-21.991a86.9,86.9,0,0,0,3.254-12.753H325.231Z" transform="translate(-325.231 -347.841)" fill="none" stroke="#263238" stroke-linecap="round" stroke-linejoin="round" stroke-width="1"/>
          <path id="Path_947" data-name="Path 947" d="M337.312,359.035l-4.685,5.856,3.253,6.246-3.2,7.759a69.89,69.89,0,0,0,2.554,7.6s2.679-4.506,5.475-9.8l-2.351-5.427,2.862-6.507Z" transform="translate(-327.812 -351.748)" fill="#b2c560" stroke="#263238" stroke-linecap="round" stroke-linejoin="round" stroke-width="1"/>
          <path id="Path_948" data-name="Path 948" d="M325.231,347.841v3.774s1.257,7,2.652,13.85l6.587-6.953,6.942,7.693a53.833,53.833,0,0,0,2.3-5.611,86.9,86.9,0,0,0,3.254-12.753Z" transform="translate(-325.231 -347.841)" fill="#fff" stroke="#263238" stroke-linecap="round" stroke-linejoin="round" stroke-width="1"/>
        </g>
        <g id="Group_785" data-name="Group 785" transform="translate(6.192 94.76)">
          <path id="Path_949" data-name="Path 949" d="M238.08,435.231s12.153-4.437,18.712,6.366" transform="translate(-238.08 -428.802)" fill="none" stroke="#263238" stroke-linecap="round" stroke-linejoin="round" stroke-width="1"/>
          <g id="Group_784" data-name="Group 784" transform="translate(7.497)">
            <path id="Path_950" data-name="Path 950" d="M261.021,440.375s-6.789,1.536-10.431,7.321,3.75,6.429,5.785,6.429,3.966-1.363,4.072-2.075,2.785-7.568,2.678-9.175A2.587,2.587,0,0,0,261.021,440.375Z" transform="translate(-249.596 -430.912)" fill="#fff" stroke="#263238" stroke-linecap="round" stroke-linejoin="round" stroke-width="1"/>
            <g id="Group_783" data-name="Group 783" transform="translate(3.169)">
              <path id="Path_951" data-name="Path 951" d="M260.464,444.051s-3.754,3.272-3.5,4.542,5.828,6.319,6.9,5.6a1.659,1.659,0,0,0,.722-2.227C264.28,451.485,260.464,444.051,260.464,444.051Z" transform="translate(-255.332 -432.195)" fill="#fff" stroke="#263238" stroke-linecap="round" stroke-linejoin="round" stroke-width="1"/>
              <path id="Path_952" data-name="Path 952" d="M256.1,451.028s-2.21,2.353-1.487,3.427,5.772,3.811,7.081,2.99.456-1.677.456-1.677Z" transform="translate(-254.464 -434.63)" fill="#fff" stroke="#263238" stroke-linecap="round" stroke-linejoin="round" stroke-width="1"/>
              <path id="Path_953" data-name="Path 953" d="M274.435,443.437l-4.518-.781,1.066,6.5,4.612.144Z" transform="translate(-259.857 -431.708)" fill="#fff" stroke="#263238" stroke-linecap="round" stroke-linejoin="round" stroke-width="1"/>
              <path id="Path_954" data-name="Path 954" d="M264.347,427.345l5.292,18.544,2.572,2.339v-3.3l-5.6-18.253a1.182,1.182,0,0,0-1.512-.771h0A1.181,1.181,0,0,0,264.347,427.345Z" transform="translate(-257.897 -425.839)" fill="#263238" stroke="#263238" stroke-linecap="round" stroke-linejoin="round" stroke-width="1"/>
              <path id="Path_955" data-name="Path 955" d="M265.63,440.371s-3.12,1.828-2.806,3.211,3.68,7.876,4.9,7.959,1.953-.683,1.775-2.056-1.325-6.489-2.064-7.628S266.587,440.3,265.63,440.371Z" transform="translate(-257.373 -430.908)" fill="#fff" stroke="#263238" stroke-linecap="round" stroke-linejoin="round" stroke-width="1"/>
              <path id="Path_956" data-name="Path 956" d="M276.489,443.856s3.329.421,3.91,1.436-1.749,5.062-2.489,5.989-2.068.883-2.107-1.458A36.057,36.057,0,0,1,276.489,443.856Z" transform="translate(-261.911 -432.127)" fill="#fff" stroke="#263238" stroke-linecap="round" stroke-linejoin="round" stroke-width="1"/>
            </g>
          </g>
        </g>
        <path id="Path_957" data-name="Path 957" d="M247.893,455.888h36.5a3.849,3.849,0,0,1,3.849,3.849h0A3.266,3.266,0,0,1,284.974,463H248.409a3,3,0,0,1-3-3v-1.638A2.481,2.481,0,0,1,247.893,455.888Z" transform="translate(-234.447 -341.566)" fill="#fff" stroke="#263238" stroke-linecap="round" stroke-linejoin="round" stroke-width="1"/>
        <g id="Group_788" data-name="Group 788" transform="translate(50.383 51.01)">
          <g id="Group_786" data-name="Group 786" transform="translate(0 52.163)">
            <path id="Path_958" data-name="Path 958" d="M333.992,441.515s-9.5-1.041-11.842-1.822-6.116-1.431-7.417-.39-7.678,8.458-7.808,9.369-1.432,3.9-.781,4.685a4.72,4.72,0,0,0,1.952,1.171s8.458,2.342,9.369,2.472,9.63-.26,9.63-.26l4.555-1.691,6.376-.13s.13,2.082.26-2.993S333.992,441.515,333.992,441.515Z" transform="translate(-305.962 -438.763)" fill="#fff" stroke="#263238" stroke-linecap="round" stroke-linejoin="round" stroke-width="1"/>
            <path id="Path_959" data-name="Path 959" d="M309.239,456.421a14.782,14.782,0,0,1,.781-4.294c.651-1.3,8.068-7.938,8.068-7.938" transform="translate(-307.106 -440.656)" fill="none" stroke="#263238" stroke-linecap="round" stroke-linejoin="round" stroke-width="1"/>
            <path id="Path_960" data-name="Path 960" d="M313.037,460.063s1.3-3.254,1.822-3.514,6.636-4.164,6.636-4.164" transform="translate(-308.431 -443.517)" fill="none" stroke="#263238" stroke-linecap="round" stroke-linejoin="round" stroke-width="1"/>
            <path id="Path_961" data-name="Path 961" d="M319.833,463.276s.26-1.3.911-1.562,6.116-2.733,6.116-2.733" transform="translate(-310.803 -445.819)" fill="none" stroke="#263238" stroke-linecap="round" stroke-linejoin="round" stroke-width="1"/>
            <path id="Path_962" data-name="Path 962" d="M328.619,465.6l2.472-.651-.26-1.171-2.6.651" transform="translate(-313.734 -447.493)" fill="none" stroke="#263238" stroke-linecap="round" stroke-linejoin="round" stroke-width="1"/>
          </g>
          <g id="Group_787" data-name="Group 787" transform="translate(28.029)">
            <path id="Path_963" data-name="Path 963" d="M378.817,371.648s-6.9,14.444-6.507,19.52,2.083,13.533,2.083,13.533-10.931,4.295-14.7,5.856a78.253,78.253,0,0,1-10.671,2.993l3.513,13.794-.521,1.431h37.868s2.863-.52,3.383-1.171a4.222,4.222,0,0,0,1.3-2.993c.26-2.083,1.952-20.3,1.562-25.375s-5.726-31.491-6.376-34.224-1.822-4.554-2.993-5.205-6.246-1.171-6.246-1.171" transform="translate(-349.018 -358.635)" fill="#fff" stroke="#263238" stroke-linecap="round" stroke-linejoin="round" stroke-width="1"/>
            <path id="Path_964" data-name="Path 964" d="M389.4,429.8s10.02.521,14.965,3.644" transform="translate(-363.11 -383.471)" fill="none" stroke="#263238" stroke-linecap="round" stroke-linejoin="round" stroke-width="1"/>
            <path id="Path_965" data-name="Path 965" d="M392.194,427.764s7.028-.391,10.8.781" transform="translate(-364.086 -382.739)" fill="none" stroke="#263238" stroke-linecap="round" stroke-linejoin="round" stroke-width="1"/>
            <path id="Path_966" data-name="Path 966" d="M387.033,378.025s-3.513,8.2-3.644,11.322-.391,4.945-.391,4.945" transform="translate(-360.877 -365.402)" fill="none" stroke="#263238" stroke-linecap="round" stroke-linejoin="round" stroke-width="1"/>
          </g>
        </g>
        <path id="Path_967" data-name="Path 967" d="M364.609,344.643s7.938,11.321,1.562,42.812" transform="translate(-276.047 -302.741)" fill="none" stroke="#263238" stroke-linecap="round" stroke-linejoin="round" stroke-width="2"/>
        <path id="Path_968" data-name="Path 968" d="M368.619,409.714a3.9,3.9,0,1,0-3.9,3.9A3.9,3.9,0,0,0,368.619,409.714Z" transform="translate(-274.722 -324.089)" fill="#fff" stroke="#263238" stroke-linecap="round" stroke-linejoin="round" stroke-width="1"/>
        <path id="Path_969" data-name="Path 969" d="M320.521,346.442s-4.034,2.6-4.685,13.143" transform="translate(-259.025 -303.369)" fill="none" stroke="#263238" stroke-linecap="round" stroke-linejoin="round" stroke-width="2"/>
        <path id="Path_970" data-name="Path 970" d="M318.9,391.159c-.984,7.113-2.324,14.745-2.625,16.421-.644,3.577-4.907,4.828-7.64,3.657" transform="translate(-256.514 -318.976)" fill="none" stroke="#263238" stroke-linecap="round" stroke-linejoin="round" stroke-width="2"/>
        <path id="Path_971" data-name="Path 971" d="M308.06,383.07c-.891-3.987-1.438-7.444-1.241-9.022.911-7.287,5.856-7.417,5.856-7.417a7.413,7.413,0,0,1,6.246,7.027,51.734,51.734,0,0,1-.665,8.941" transform="translate(-255.864 -310.415)" fill="none" stroke="#263238" stroke-linecap="round" stroke-linejoin="round" stroke-width="2"/>
        <path id="Path_972" data-name="Path 972" d="M319.738,410.97s-2.732,1.561-4.554.52c-1.231-.7-4.58-11.3-6.436-19.607" transform="translate(-256.551 -319.228)" fill="none" stroke="#263238" stroke-linecap="round" stroke-linejoin="round" stroke-width="2"/>
        <path id="Rectangle_1161" data-name="Rectangle 1161" d="M1.037,0H2.182A1.037,1.037,0,0,1,3.219,1.037v0A1.037,1.037,0,0,1,2.182,2.075H1.037A1.037,1.037,0,0,1,0,1.037v0A1.037,1.037,0,0,1,1.037,0Z" transform="translate(62.133 91.186) rotate(-23.322)" fill="none" stroke="#263238" stroke-linecap="round" stroke-linejoin="round" stroke-width="1"/>
        <path id="Rectangle_1162" data-name="Rectangle 1162" d="M1.037,0H2.181A1.038,1.038,0,0,1,3.219,1.038v0A1.036,1.036,0,0,1,2.183,2.075H1.037A1.037,1.037,0,0,1,0,1.037v0A1.037,1.037,0,0,1,1.037,0Z" transform="matrix(0.857, 0.515, -0.515, 0.857, 50.584, 89.904)" fill="none" stroke="#263238" stroke-linecap="round" stroke-linejoin="round" stroke-width="1"/>
        <g id="Group_789" data-name="Group 789" transform="translate(55.025)">
          <path id="Path_973" data-name="Path 973" d="M314.9,297.648s-2.083,4.945-1.692,8.068,4.554,6.507,4.554,6.507S319.2,298.3,319.2,297.779,316.594,296.087,314.9,297.648Z" transform="translate(-313.117 -286.067)" fill="#263238" stroke="#263238" stroke-linecap="round" stroke-linejoin="round" stroke-width="1"/>
          <line id="Line_26" data-name="Line 26" y1="1.933" x2="2.768" transform="translate(0.29 27.351)" fill="none" stroke="#263238" stroke-linecap="round" stroke-linejoin="round" stroke-width="2"/>
          <path id="Path_974" data-name="Path 974" d="M318.056,295.65s-.52,13.794-.26,16.4,1.3,10.931,2.212,13.533,3.9,10.932,6.246,11.842,7.027,1.561,8.588.52,7.287-4.945,8.849-8.718a25.59,25.59,0,0,0,1.822-6.9,9.582,9.582,0,0,0,4.944-6.9c.781-4.945-1.3-6.377-1.3-6.377l.13-8.589s-1.431-5.986-5.2-9.239-8.2-3.513-12.753-1.041A115.463,115.463,0,0,1,318.056,295.65Z" transform="translate(-314.709 -283.158)" fill="#fff" stroke="#263238" stroke-linecap="round" stroke-linejoin="round" stroke-width="1"/>
          <path id="Path_975" data-name="Path 975" d="M340.9,291.989s.13-3.383-3.123-2.212-4.034,3.383-8.849,5.335-11.191-.26-13.4-1.561-3.774-3.123-.781-6.507,10.02-6.766,17.567-6.766,13.4,6.246,15.876,8.848a7.878,7.878,0,0,1,1.952,8.2c-.911,2.343-2.6,8.849-2.6,8.849s-1.042-.13-1.432,1.432-.26,3.253-1.952,3.383-1.561-4.424-1.561-4.424-4.164-1.3-4.685-4.295S340.9,294.853,340.9,291.989Z" transform="translate(-313.093 -280.278)" fill="#263238" stroke="#263238" stroke-linecap="round" stroke-linejoin="round" stroke-width="1"/>
          <path id="Path_976" data-name="Path 976" d="M325.575,327.382l-12.036-2.12.7,5.395a1.581,1.581,0,0,0,1.321,1.357l7.312,1.152a1.58,1.58,0,0,0,1.795-1.25Z" transform="translate(-313.249 -295.978)" fill="none" stroke="#263238" stroke-linecap="round" stroke-linejoin="round" stroke-width="2"/>
          <path id="Path_977" data-name="Path 977" d="M335.371,328.656l13.959-.4-1.37,5.051a1.665,1.665,0,0,1-1.65,1.117l-8.467.116a1.83,1.83,0,0,1-1.915-1.434Z" transform="translate(-320.868 -297.021)" fill="none" stroke="#263238" stroke-linecap="round" stroke-linejoin="round" stroke-width="2"/>
          <line id="Line_27" data-name="Line 27" x2="2.177" y2="0.231" transform="translate(12.326 31.404)" fill="none" stroke="#263238" stroke-linecap="round" stroke-linejoin="round" stroke-width="2"/>
          <line id="Line_28" data-name="Line 28" y1="3.904" x2="4.555" transform="translate(28.462 27.327)" fill="#fff" stroke="#263238" stroke-linecap="round" stroke-linejoin="round" stroke-width="2"/>
          <path id="Path_978" data-name="Path 978" d="M338.224,325.51s3.9-2.993,7.547-1.171" transform="translate(-321.864 -295.45)" fill="none" stroke="#263238" stroke-linecap="round" stroke-linejoin="round" stroke-width="2"/>
          <path id="Path_979" data-name="Path 979" d="M325.81,324.482s-2.993-3.253-6.376-1.041" transform="translate(-315.306 -295.073)" fill="none" stroke="#263238" stroke-linecap="round" stroke-linejoin="round" stroke-width="2"/>
          <path id="Path_980" data-name="Path 980" d="M330.273,342.844s-.651,2.733,0,3.253a5.758,5.758,0,0,0,3.644.651" transform="translate(-318.988 -302.114)" fill="none" stroke="#263238" stroke-linecap="round" stroke-linejoin="round" stroke-width="1"/>
          <path id="Path_981" data-name="Path 981" d="M327.429,351.04a11.2,11.2,0,0,0,5.075,2.082c2.473.13,5.336-1.692,5.336-1.692" transform="translate(-318.096 -304.974)" fill="none" stroke="#263238" stroke-linecap="round" stroke-linejoin="round" stroke-width="1"/>
          <path id="Path_982" data-name="Path 982" d="M342.221,330.581s1.562,1.822,4.164-.13" transform="translate(-323.259 -297.788)" fill="none" stroke="#263238" stroke-linecap="round" stroke-linejoin="round" stroke-width="1"/>
          <path id="Path_983" data-name="Path 983" d="M322.53,329.418s1.3,2.018,4.142.441" transform="translate(-316.386 -297.428)" fill="none" stroke="#263238" stroke-linecap="round" stroke-linejoin="round" stroke-width="1"/>
        </g>
      </g>
    </g>
    <g id="Character_1" data-name="Character 1" transform="translate(38.98 253.398)">
      <g id="Group_795" data-name="Group 795">
        <g id="Group_794" data-name="Group 794" transform="translate(14.095)">
          <g id="Group_791" data-name="Group 791" transform="translate(38.011)">
            <path id="Path_984" data-name="Path 984" d="M176.217,293.645s.827,12.4.206,13.437l-1.861,3.1s.827,8.889-.827,9.922a10.9,10.9,0,0,1-4.134,1.241s-1.654,6.615-2.273,7.442a22.461,22.461,0,0,1-5.582,3.927c-1.24.413-5.168.62-14.47-4.961s-12.817-7.442-12.61-10.542.62-6.615.62-6.615,1.033-14.884,2.894-19.432,25.426-7.028,30.594-5.788S176.217,293.645,176.217,293.645Z" transform="translate(-128.816 -274.849)" fill="#fff" stroke="#263238" stroke-linecap="round" stroke-linejoin="round" stroke-width="1"/>
            <path id="Path_985" data-name="Path 985" d="M161.662,329.685l1.447,1.033s-1.24,4.961-.62,7.235" transform="translate(-138.24 -290.424)" fill="none" stroke="#263238" stroke-linecap="round" stroke-linejoin="round" stroke-width="1"/>
            <path id="Path_986" data-name="Path 986" d="M192.575,322.294c-.21.946-.709,1.64-1.115,1.549s-.563-.93-.353-1.876.709-1.639,1.114-1.549S192.786,321.349,192.575,322.294Z" transform="translate(-148.484 -287.187)" fill="#263238"/>
            <path id="Path_987" data-name="Path 987" d="M190.168,316.914s2.255-2.256,4.135-.126" transform="translate(-148.189 -285.604)" fill="none" stroke="#263238" stroke-linecap="round" stroke-linejoin="round" stroke-width="1"/>
            <path id="Path_988" data-name="Path 988" d="M164.816,286.519s2.687,4.961,2.481,5.994-8.682,3.514-8.682,3.514-.827,4.961-2.067,5.582l-1.24.62a21.894,21.894,0,0,1-2.481-4.341c-1.447-3.1-3.514-3.927-5.788-.827s-.413,10.336.827,10.956l1.24.62s-1.033,1.033-4.961,1.654-6.822,1.447-9.716.62-7.028-8.682-8.475-18.811,3.1-18.811,9.1-21.5,19.638-.206,20.672.413,8.061-2.687,12.2-.62,3.927,4.341,4.961,5.788,6.408-.413,6.822,4.754-1.654,8.268-4.342,8.682S164.816,286.519,164.816,286.519Z" transform="translate(-125.683 -269.376)" fill="#263238" stroke="#263238" stroke-linecap="round" stroke-linejoin="round" stroke-width="1"/>
          </g>
          <g id="Group_793" data-name="Group 793" transform="translate(0 47.329)">
            <path id="Path_989" data-name="Path 989" d="M95.489,344.342s-19.81,10.566-23.583,12.641-4.34,3.962-4.528,5.849,0,65.656,0,65.656H174.353s-16.225-48.676-16.792-54.147-1.7-15.094-3.207-16.225-22.829-10.566-22.829-10.566-5.094-5.472-17.169-5.472S95.489,344.342,95.489,344.342Z" transform="translate(-67.294 -342.078)" fill="#7c8e30" stroke="#263238" stroke-linecap="round" stroke-linejoin="round" stroke-width="1"/>
            <g id="Group_792" data-name="Group 792" transform="translate(19.328 17.169)">
              <path id="Path_990" data-name="Path 990" d="M129.45,405.191q.838.332,1.694.609" transform="translate(-108.315 -381.273)" fill="none" stroke="#263238" stroke-linecap="round" stroke-linejoin="round" stroke-width="1"/>
              <path id="Path_991" data-name="Path 991" d="M96.984,378.3s7.809,10.9,18.479,16.3" transform="translate(-96.984 -371.89)" fill="none" stroke="#263238" stroke-linecap="round" stroke-linejoin="round" stroke-width="1"/>
              <path id="Path_992" data-name="Path 992" d="M107.417,397.723s4.34,4.339,13.4,6.792" transform="translate(-100.625 -378.667)" fill="none" stroke="#263238" stroke-linecap="round" stroke-linejoin="round" stroke-width="1"/>
              <path id="Path_993" data-name="Path 993" d="M185.348,373.7c-3.015,3.426-7.259,8.9-8.665,13.94" transform="translate(-124.799 -370.283)" fill="none" stroke="#263238" stroke-linecap="round" stroke-linejoin="round" stroke-width="1"/>
              <path id="Path_994" data-name="Path 994" d="M194.116,368.451s-.6.578-1.539,1.571" transform="translate(-130.346 -368.451)" fill="none" stroke="#263238" stroke-linecap="round" stroke-linejoin="round" stroke-width="1"/>
              <path id="Path_995" data-name="Path 995" d="M176.6,385.84s-2.83,5.472-3.4,8.867" transform="translate(-123.585 -374.52)" fill="none" stroke="#263238" stroke-linecap="round" stroke-linejoin="round" stroke-width="1"/>
            </g>
          </g>
          <path id="Path_996" data-name="Path 996" d="M108.867,342.1s10.943-.377,21.319-.189a45.646,45.646,0,0,1,17.169,3.4s-6.226-7.546-9.057-9.245-11.508-4.528-18.678-2.264A20.81,20.81,0,0,0,108.867,342.1Z" transform="translate(-81.803 -291.567)" fill="#7c8e30" stroke="#263238" stroke-linecap="round" stroke-linejoin="round" stroke-width="1"/>
        </g>
        <path id="Path_997" data-name="Path 997" d="M55.684,452.185,45.71,413.954a3.2,3.2,0,0,1,3.129-3.842h79.348a3.2,3.2,0,0,1,3.122,2.515l8.808,39.605" transform="translate(-45.643 -318.493)" fill="#263238" stroke="#263238" stroke-linecap="round" stroke-linejoin="round" stroke-width="1"/>
      </g>
    </g>
  </g>
</svg>
