<svg xmlns="http://www.w3.org/2000/svg" width="73.948" height="73.933" viewBox="0 0 73.948 73.933">
  <g id="Group_871" data-name="Group 871" transform="translate(-977 -203.814)">
    <g id="Group_870" data-name="Group 870" transform="translate(1046.356 127.028)">
      <path id="Path_1044" data-name="Path 1044" d="M-39.177,166.608a21.47,21.47,0,0,0-.728-2.91c-.614-2.305-1.248-4.605-1.873-6.907q-.15-.626-.3-1.253a14.2,14.2,0,0,0-4.765-8.078,13.37,13.37,0,0,0-11.844-2.844,13.058,13.058,0,0,0-7.318,4.4,14.256,14.256,0,0,0-2.807,5.132c-.237.776-.275,1.588-.545,2.35v2.743c.292.293.134.684.2,1.024.447,2.192,1.116,4.325,1.679,6.486.771,2.9,1.524,5.812,2.321,8.708a10.28,10.28,0,0,0,.856,2.7c2.435-.628,4.874-1.239,7.3-1.887q9.275-2.471,18.544-4.965a4.032,4.032,0,0,1,.566-.071Z" transform="translate(0 -54.447)" fill="#fcf6e8"/>
      <path id="Path_1045" data-name="Path 1045" d="M-11.839,303.44c-.014-.239-.008-.48-.046-.715a76.326,76.326,0,0,0-1.969-7.8l-27.373,0,27.373,0L-16.726,284.1a4.029,4.029,0,0,0-.566.071q-9.273,2.479-18.544,4.965c-2.43.647-4.869,1.259-7.3,1.887a20.061,20.061,0,0,0,1,4.042c.658,2.82,1.448,5.606,2.227,8.394q.381,1.46.761,2.92a16,16,0,0,0,1.67,4.569,9.645,9.645,0,0,0,1.944,2.744c3.9,3.83,8.511,5.236,13.851,3.761a11.886,11.886,0,0,0,5.976-3.66,11.314,11.314,0,0,0,2.042-2.662A12.821,12.821,0,0,0-11.839,303.44Z" transform="translate(-21.157 -167.308)" fill="#eee2d2"/>
      <path id="Path_1046" data-name="Path 1046" d="M133.417,80.679a16.74,16.74,0,0,0-6.036-3.173c-1.088-.347-2.234-.417-3.33-.72h-3.61c-.878.192-1.764.351-2.631.583A17.423,17.423,0,0,0,108.757,83a15.9,15.9,0,0,0-3.531,6.19q9.038.008,18.077.017-9.038-.01-18.076-.017a15.771,15.771,0,0,0-.921,6.514,17.829,17.829,0,0,0,.4,3.061,16.857,16.857,0,0,0,3.465,7.185,39.7,39.7,0,0,1,3.267-3.2c.184-.219.354-.452.555-.655q2.784-2.822,5.576-5.635c2.264-2.169,4.46-4.406,6.635-6.663,2.134-2,4.185-4.089,6.214-6.2a.827.827,0,0,0-.034-.158.839.839,0,0,1,.034.158Z" transform="translate(-140.125 0)" fill="#eee9d3"/>
      <path id="Union_23" data-name="Union 23" d="M4.066,27.476a11.277,11.277,0,0,1-.878-1.218A13.639,13.639,0,0,1,.562,20.632a4.5,4.5,0,0,1,1.058-.158q4.7.01,9.4.007h3.418c.008.6.014,1.2.022,1.794a2.165,2.165,0,1,0,4.326,0c.013-.789.017-1.579.023-2.369-.059-1.158-.059-1.158,1.1-1.158.818,0,1.636.01,2.454,0a2.176,2.176,0,0,0,2.2-2.193,2.233,2.233,0,0,0-2.191-2.13c-.77-.014-1.539,0-2.309,0-1.311,0-1.311,0-1.252-1.3q-.01-1.078-.02-2.157a2.172,2.172,0,1,0-4.333,0q-.012,1.366-.021,2.733c.122.557-.074.762-.666.733-.981-.047-1.966-.03-2.95-.008a2.132,2.132,0,0,0-2.136,2.15,2.2,2.2,0,0,0,2.142,2.171c.672.017,1.344,0,2.014,0,1.687,0,1.687,0,1.6,1.736H11.017q-4.7,0-9.4-.007a4.5,4.5,0,0,0-1.058.158,14.076,14.076,0,0,1-.269-6.794A14.91,14.91,0,0,1,3.5,6.481,15.658,15.658,0,0,1,13.693.27c6.382-1.057,11.671,1,15.858,5.915a2.761,2.761,0,0,1,.193.3,14.678,14.678,0,0,1,3.041,6.489,16.66,16.66,0,0,1,.437,4.241,13.407,13.407,0,0,1-.369,2.7,14.686,14.686,0,0,1-2.8,6.346A16.143,16.143,0,0,1,20.579,32.7a19.039,19.039,0,0,1-4.18.484C11.694,33.183,7.588,31.222,4.066,27.476Z" transform="translate(-28.652 117.526)" fill="#ecf3ca"/>
      <path id="Path_1049" data-name="Path 1049" d="M169.085,120.877a4.8,4.8,0,0,0-.283-1.471,16.42,16.42,0,0,0-3.316-6.594c-1.6,1.613-3.2,3.233-4.81,4.839-1.133,1.129-2.285,2.239-3.428,3.358l-7.679,7.8q-1.472,1.447-2.947,2.893c-.185.181-.4.336-.594.5-.793,1.014-1.792,1.83-2.668,2.765-.194.207-.385.419-.577.628h0l-2.556,2.469a.945.945,0,0,0,.132.166,17.949,17.949,0,0,0,21.184.506,18.1,18.1,0,0,0,7.142-10.055h0A15.83,15.83,0,0,0,169.085,120.877Zm-.683,7.738-.033-.005Zm-.376-.052q-.232-.024-.465-.032Q167.8,128.538,168.027,128.562Zm-13.233,6.888q2.007.011,4.013.022Q156.8,135.465,154.794,135.45Zm12.466-6.926h0Z" transform="translate(-169.139 -29.074)" fill="#ccb69e"/>
      <path id="Path_1050" data-name="Path 1050" d="M149.692,96.961l-3,2.918c-2.029,2.107-4.08,4.193-6.214,6.2-2.175,2.258-4.371,4.494-6.635,6.664q-2.789,2.816-5.577,5.635c-.2.2-.371.436-.555.655h0a39.7,39.7,0,0,0-3.267,3.2,12.828,12.828,0,0,0,3.046,3.041l2.557-2.469c.192-.209.383-.421.577-.628.876-.935,1.875-1.75,2.668-2.765.2-.167.409-.322.594-.5q1.478-1.441,2.947-2.893l7.679-7.8c1.144-1.119,2.3-2.229,3.428-3.358,1.611-1.606,3.208-3.225,4.81-4.839A12.789,12.789,0,0,0,149.692,96.961Zm-21.878,22.125a1.41,1.41,0,0,0,.562.116A1.41,1.41,0,0,1,127.814,119.086Z" transform="translate(-156.4 -16.282)" fill="#fcf6e8"/>
      <path id="Path_1051" data-name="Path 1051" d="M196.694,337.153c-.059,1.3-.059,1.3,1.251,1.3.77,0,1.54-.011,2.309,0a2.233,2.233,0,0,1,2.191,2.131,2.177,2.177,0,0,1-2.2,2.193c-.818.014-1.636,0-2.453,0-1.159,0-1.159,0-1.1,1.16-.007.79-.011,1.579-.023,2.369a2.165,2.165,0,1,1-4.327,0q-.012-.9-.022-1.794c.089-1.737.089-1.737-1.6-1.737-.672,0-1.343.014-2.014,0a2.2,2.2,0,0,1-2.143-2.171,2.132,2.132,0,0,1,2.136-2.15c.983-.022,1.968-.039,2.949.008.592.028.788-.176.667-.733q.01-1.366.02-2.732a2.172,2.172,0,1,1,4.334,0Q196.683,336.074,196.694,337.153Z" transform="translate(-206.537 -206.509)" fill="#fff"/>
    </g>
  </g>
</svg>
