<svg xmlns="http://www.w3.org/2000/svg" width="19.459" height="15.136" viewBox="0 0 19.459 15.136">
  <g id="Group_760" data-name="Group 760" transform="translate(114.358 -189.801)">
    <path id="Path_762" data-name="Path 762" d="M-104.189,204.887a10.09,10.09,0,0,1-7.119-2.554,12.234,12.234,0,0,1-2.326-2.763,3.894,3.894,0,0,1,.022-4.413,11.294,11.294,0,0,1,4.712-4.339,9.746,9.746,0,0,1,6.99-.572,10.741,10.741,0,0,1,6.369,5.129,3.67,3.67,0,0,1,.031,3.949,10.925,10.925,0,0,1-6.074,5.1A8.832,8.832,0,0,1-104.189,204.887Zm-.246-1.561a13.609,13.609,0,0,0,1.395-.161,9.206,9.206,0,0,0,6.189-4.665,2.183,2.183,0,0,0-.064-2.366,10.215,10.215,0,0,0-3.011-3.233,8.132,8.132,0,0,0-7.094-1.108,9.267,9.267,0,0,0-5.382,4.417,2.211,2.211,0,0,0-.278,1.6,4.118,4.118,0,0,0,.9,1.68A8.843,8.843,0,0,0-104.434,203.326Z" fill="#7c8e30"/>
    <path id="Path_762_-_Outline" data-name="Path 762 - Outline" d="M-104.143,204.937h-.052a10.172,10.172,0,0,1-7.146-2.566,12.339,12.339,0,0,1-2.336-2.774,3.944,3.944,0,0,1,.022-4.466,11.266,11.266,0,0,1,4.733-4.357,9.8,9.8,0,0,1,4.223-.972,10.4,10.4,0,0,1,2.8.4,9.979,9.979,0,0,1,3.708,1.942,12.543,12.543,0,0,1,2.691,3.209,3.72,3.72,0,0,1,.031,4,11.026,11.026,0,0,1-6.1,5.123A8.966,8.966,0,0,1-104.143,204.937ZM-104.7,189.9a9.7,9.7,0,0,0-4.18.962,11.169,11.169,0,0,0-4.691,4.32,3.85,3.85,0,0,0-.022,4.36,12.239,12.239,0,0,0,2.317,2.752,10.078,10.078,0,0,0,7.08,2.541h.052a8.859,8.859,0,0,0,2.544-.46,10.929,10.929,0,0,0,6.046-5.079,3.625,3.625,0,0,0-.03-3.9,10.6,10.6,0,0,0-6.34-5.106A10.3,10.3,0,0,0-104.7,189.9Zm.266,13.475h0a8.923,8.923,0,0,1-7.387-3.859l-.027-.036a4.077,4.077,0,0,1-.879-1.664,2.257,2.257,0,0,1,.284-1.633,9.253,9.253,0,0,1,5.411-4.439,8.982,8.982,0,0,1,2.485-.366,8.213,8.213,0,0,1,4.651,1.48,10.191,10.191,0,0,1,3.026,3.249,2.229,2.229,0,0,1,.064,2.418,9.2,9.2,0,0,1-6.222,4.688,9.018,9.018,0,0,1-1.082.134c-.122.01-.227.018-.317.028Zm-.117-11.9a8.882,8.882,0,0,0-2.457.362,9.157,9.157,0,0,0-5.353,4.395,2.16,2.16,0,0,0-.272,1.562,4,4,0,0,0,.861,1.623l.027.036a8.828,8.828,0,0,0,7.305,3.819c.091-.01.2-.018.317-.028a8.94,8.94,0,0,0,1.07-.132,9.1,9.1,0,0,0,6.156-4.641,2.134,2.134,0,0,0-.064-2.315,10.093,10.093,0,0,0-3-3.218A8.115,8.115,0,0,0-104.549,191.479Z" fill="#fff"/>
    <path id="Path_763" data-name="Path 763" d="M-31.379,240.533a3.983,3.983,0,0,1-4.028,3.979,3.988,3.988,0,0,1-3.981-4.023,3.983,3.983,0,0,1,4.024-3.98A3.99,3.99,0,0,1-31.379,240.533Zm-1.573-.025a2.432,2.432,0,0,0-2.422-2.429,2.443,2.443,0,0,0-2.442,2.45,2.445,2.445,0,0,0,2.406,2.414A2.444,2.444,0,0,0-32.952,240.508Z" transform="translate(-69.255 -43.129)" fill="#7c8e30"/>
    <path id="Path_763_-_Outline" data-name="Path 763 - Outline" d="M-35.4,244.562h-.008a4,4,0,0,1-2.857-1.191,4.063,4.063,0,0,1-1.174-2.882,3.994,3.994,0,0,1,1.187-2.855,4.06,4.06,0,0,1,2.879-1.175h.008A4.005,4.005,0,0,1-32.5,237.65a4.063,4.063,0,0,1,1.175,2.883,3.991,3.991,0,0,1-1.188,2.855A4.066,4.066,0,0,1-35.4,244.562Zm.027-8a3.955,3.955,0,0,0-3.966,3.93,3.96,3.96,0,0,0,3.931,3.973h.008a3.956,3.956,0,0,0,3.97-3.929,3.962,3.962,0,0,0-3.935-3.974Zm-.022,6.434h-.017a2.453,2.453,0,0,1-1.728-.733,2.452,2.452,0,0,1-.728-1.73,2.477,2.477,0,0,1,.729-1.768,2.462,2.462,0,0,1,1.754-.731h.009a2.484,2.484,0,0,1,2.472,2.479,2.464,2.464,0,0,1-.732,1.756A2.478,2.478,0,0,1-35.394,242.993Zm.011-4.863a2.363,2.363,0,0,0-1.684.7,2.378,2.378,0,0,0-.7,1.7,2.409,2.409,0,0,0,2.357,2.364h.016a2.378,2.378,0,0,0,1.689-.7,2.364,2.364,0,0,0,.7-1.685,2.384,2.384,0,0,0-2.372-2.379Z" transform="translate(-69.255 -43.129)" fill="#fff"/>
  </g>
</svg>
