<svg xmlns="http://www.w3.org/2000/svg" width="14.718" height="13.451" viewBox="0 0 14.718 13.451">
  <g id="Group_752" data-name="Group 752" transform="translate(143.433 -233.305)">
    <path id="Union_11" data-name="Union 11" d="M-5085.2,271.48a2.056,2.056,0,0,1-2.185-2.2v-3.977a.788.788,0,0,1-.525.226.639.639,0,0,1-.444-.185.631.631,0,0,1-.207-.456.757.757,0,0,1,.258-.548c.924-.908,1.866-1.829,2.776-2.72l1.383-1.354,1.732-1.7a1.729,1.729,0,0,1,1.212-.543,1.727,1.727,0,0,1,1.208.54l4.18,4.092,1.579,1.545c.032.029.063.06.093.091a.866.866,0,0,1,.3.6.615.615,0,0,1-.2.442.627.627,0,0,1-.44.19.812.812,0,0,1-.531-.234v1.129q0,1.425,0,2.85a2.056,2.056,0,0,1-2.183,2.2h-8Zm3.75-11.98-.391.382c-1.344,1.313-2.733,2.67-4.09,4.013a.428.428,0,0,0-.107.246c-.012,1.668-.01,3.327-.006,5.167a.746.746,0,0,0,.857.851h7.939c.633,0,.891-.255.893-.876v-.4c0-1.543,0-3.139-.009-4.706a.5.5,0,0,0-.124-.3c-1.318-1.306-2.669-2.624-3.974-3.9l-.484-.473a.425.425,0,0,0-.254-.149A.411.411,0,0,0-5081.451,259.5Z" transform="translate(4945.129 -24.726)" fill="#414141"/>
    <path id="Subtraction_1" data-name="Subtraction 1" d="M-5085.319,260.014H-5086c-.277,0-.313-.014-.315-.328,0-.128,0-.255,0-.384v-.132c0-.089,0-.18,0-.272v-.631h-1.022l-.389,0c-.32,0-.336-.017-.337-.336v-.152c0-.405,0-.839,0-1.259,0-.207.034-.239.243-.243.177,0,.341-.006.531-.006.155,0,.3,0,.471.006h.029a.463.463,0,0,0,.355-.13.492.492,0,0,0,.12-.378c-.01-.3-.008-.591,0-.972,0-.24.045-.262.254-.264l.737,0,.735,0c.232,0,.266.019.27.278s.008.622,0,.974a.492.492,0,0,0,.121.364.464.464,0,0,0,.348.127h.02c.151,0,.309-.006.482-.006.154,0,.325,0,.521,0,.226,0,.257.035.259.259,0,.519,0,1,0,1.471,0,.223-.034.254-.263.259-.139,0-.287,0-.467,0h-1.019v.642c0,.271,0,.535,0,.792,0,.282-.013.313-.329.314Z" transform="translate(4949.234 -16.29)" fill="#414141"/>
  </g>
</svg>
