<svg xmlns="http://www.w3.org/2000/svg" width="10.692" height="13.309" viewBox="0 0 10.692 13.309">
  <g id="Group_754" data-name="Group 754" transform="translate(78.471 -240.638)">
    <path id="Path_974" data-name="Path 974" d="M-73.1,346.453c.69,0,1.381-.017,2.071,0a3.545,3.545,0,0,1,2.673,1.241,2.157,2.157,0,0,1-.036,2.978,4.854,4.854,0,0,1-2.319,1.43,8.682,8.682,0,0,1-4.835,0,4.856,4.856,0,0,1-2.293-1.41,2.157,2.157,0,0,1-.042-3,3.552,3.552,0,0,1,2.677-1.232C-74.5,346.437-73.8,346.453-73.1,346.453Zm-.035,1.327c-.656,0-1.311-.005-1.967,0a2.327,2.327,0,0,0-1.708.7.87.87,0,0,0-.013,1.342,3.716,3.716,0,0,0,1.764,1.032,7.579,7.579,0,0,0,2.738.2,4.305,4.305,0,0,0,2.862-1.2.9.9,0,0,0-.044-1.442,2.376,2.376,0,0,0-1.666-.64C-71.825,347.777-72.48,347.78-73.136,347.78Z" transform="translate(0 -98.5)" fill="#333e29"/>
    <path id="Path_975" data-name="Path 975" d="M-49.151,243.977a3.322,3.322,0,0,1,3.292-3.339,3.321,3.321,0,0,1,3.349,3.316,3.317,3.317,0,0,1-3.292,3.335A3.317,3.317,0,0,1-49.151,243.977Zm5.306,0a1.959,1.959,0,0,0-1.987-1.992,1.959,1.959,0,0,0-1.984,1.96,1.974,1.974,0,0,0,1.969,2.013A1.973,1.973,0,0,0-43.844,243.973Z" transform="translate(-27.295)" fill="#333e29"/>
  </g>
</svg>
